<?xml version="1.0" encoding="UTF-8"?>
<svg width="100px" height="100px" viewBox="0 0 100 100" version="1.1" xmlns="http://www.w3.org/2000/svg" xmlns:xlink="http://www.w3.org/1999/xlink">
    <title>Group 9</title>
    <g id="Welcome" stroke="none" stroke-width="1" fill="none" fill-rule="evenodd">
        <g id="Desktop-HD" transform="translate(-1102.000000, -408.000000)">
            <g id="Group-17" transform="translate(310.000000, 30.000000)">
                <g id="Group-11" transform="translate(792.000000, 378.000000)">
                    <g id="Group-9">
                        <g id="Group-15">
                            <rect id="Rectangle" x="0" y="0" width="100" height="100"></rect>
                            <g id="icon_mist_day" transform="translate(28.000000, 31.000000)" stroke="#FFFFFF" stroke-linecap="round" stroke-linejoin="round" stroke-width="4">
                                <path d="M0.0334285493,3.1091747 C5.35255803,0.348673426 11.4695569,-1.03157721 17.3205994,0.90077368 C20.7780335,2.00497419 23.7035547,4.21337521 27.1609889,5.31757571 C33.0120313,7.2499266 39.1290302,5.86967597 44.4481597,3.1091747" id="Page-1"></path>
                                <path d="M0.0334285493,13.5886606 C5.35255803,10.8281593 11.4695569,9.4479087 17.3205994,11.3802596 C20.7780335,12.4844601 23.7035547,14.6928611 27.1609889,15.7970616 C33.0120313,17.7294125 39.1290302,16.3491619 44.4481597,13.5886606" id="Page-1" opacity="0.699999988"></path>
                                <path d="M0.0334285493,24.0681465 C5.35255803,21.3076452 11.4695569,19.9273946 17.3205994,21.8597455 C20.7780335,22.963946 23.7035547,25.172347 27.1609889,26.2765475 C33.0120313,28.2088984 39.1290302,26.8286478 44.4481597,24.0681465" id="Page-1" opacity="0.400000006"></path>
                                <path d="M0.0334285493,34.5476324 C5.35255803,31.7871312 11.4695569,30.4068805 17.3205994,32.3392314 C20.7780335,33.4434319 23.7035547,35.6518329 27.1609889,36.7560335 C33.0120313,38.6883843 39.1290302,37.3081337 44.4481597,34.5476324" id="Page-1" opacity="0.200000003"></path>
                            </g>
                        </g>
                    </g>
                </g>
            </g>
        </g>
    </g>
</svg>